<?xml version="1.0" encoding="utf-8"?>
<!-- Generator: Adobe Illustrator 25.4.1, SVG Export Plug-In . SVG Version: 6.00 Build 0)  -->
<svg version="1.2" baseProfile="tiny" id="Layer_1" xmlns="http://www.w3.org/2000/svg" xmlns:xlink="http://www.w3.org/1999/xlink"
	 x="0px" y="0px" viewBox="0 0 50 50" overflow="visible" xml:space="preserve">
<g>
	<path d="M25.02,48.95c-5.97,0-11.95,0-17.92,0c-2.02,0-3.23-1.2-3.07-3.19C4.56,39,7.66,33.91,13.95,31.08
		c1.58-0.71,3.37-1.22,5.09-1.29c4.09-0.17,8.22-0.3,12.29,0.04c7.71,0.65,13.78,6.99,14.5,14.7c0.03,0.3,0.06,0.6,0.1,0.89
		c0.31,2.11-0.89,3.52-2.99,3.52C36.97,48.95,31,48.95,25.02,48.95z"/>
	<path d="M36.86,12.96c0.28,6.25-4.89,12.01-11.94,11.95c-6.66-0.06-11.9-5.26-11.84-11.91C13.14,6.24,18,1.08,24.99,1.05
		C32.36,1.02,37.12,6.95,36.86,12.96z"/>
</g>
</svg>
